<?xml version="1.0" encoding="UTF-8"?><svg xmlns="http://www.w3.org/2000/svg" viewBox="0 0 178.26 176.47"><defs><style>.d{fill:none;}.e{fill:#e53135;}.f{fill:#383838;}.g{fill:#777;}</style></defs><g id="a"/><g id="b"><g id="c"><g><g><path class="d" d="M113.68,14.09h0c.07,.05,.04,.02,0,0Z"/><path d="M113.68,14.09h0s-.07-.04,0,0Z"/><path class="f" d="M113.68,14.09c-34.61,30.43-22.96,25.58-59.55,2.12L0,63.66S49.11,29.93,55.85,28.58c4.32,2.49,18.23,12.23,25.97,12.2-5.4,6.3-20.53,14.07-34.86,26.46,0,0,50.18-23.33,66.76-38.6,.12-1.01,12.79,2.56,27.02-4.08-4.63,4.43-32.22,27.68-36.9,32.84,22.54-11.85,46.76-26.77,67.29-47.56-2.41,2.91-21.37,44.73-21.64,44.38,3.78-.19,16.81-6.2,17.03-9.07,.3-3.93,11.54-42.24,11.74-45.11-16.31-1.51-30.77,32.76-64.58,14.04Z"/></g><g><path class="g" d="M1.88,82.16H16v4.82H6.77v4.68H16v4.73H6.77v6.8H16v4.83H1.88v-25.86Zm7.93-8.89h5.68l-6.43,6.89h-3.45l4.2-6.89Z"/><path class="g" d="M44.35,86.7l-3.44,3.28c-2.34-2.48-4.98-3.71-7.9-3.71-2.47,0-4.55,.84-6.24,2.53-1.69,1.69-2.54,3.77-2.54,6.25,0,1.72,.37,3.25,1.12,4.59,.75,1.34,1.81,2.39,3.18,3.15,1.37,.76,2.89,1.14,4.57,1.14,1.43,0,2.73-.27,3.92-.8,1.18-.53,2.48-1.5,3.9-2.91l3.34,3.48c-1.91,1.86-3.71,3.16-5.41,3.88-1.7,.72-3.64,1.08-5.82,1.08-4.02,0-7.31-1.27-9.87-3.82-2.56-2.55-3.84-5.82-3.84-9.8,0-2.58,.58-4.87,1.75-6.87,1.17-2,2.84-3.62,5.01-4.83,2.17-1.22,4.51-1.83,7.02-1.83,2.13,0,4.19,.45,6.16,1.35,1.97,.9,3.68,2.18,5.11,3.84Z"/><path class="g" d="M60.86,81.51c3.66,0,6.8,1.32,9.44,3.97,2.63,2.65,3.95,5.88,3.95,9.69s-1.3,6.97-3.9,9.58c-2.6,2.61-5.75,3.92-9.45,3.92s-7.11-1.34-9.67-4.03c-2.57-2.68-3.85-5.87-3.85-9.56,0-2.47,.6-4.75,1.79-6.82,1.2-2.07,2.84-3.72,4.93-4.93,2.09-1.21,4.35-1.82,6.76-1.82Zm-.05,4.82c-2.39,0-4.41,.83-6.04,2.5-1.63,1.66-2.45,3.78-2.45,6.35,0,2.86,1.03,5.12,3.08,6.79,1.6,1.3,3.43,1.95,5.49,1.95,2.33,0,4.32-.84,5.96-2.53,1.64-1.69,2.46-3.77,2.46-6.24s-.83-4.54-2.48-6.25c-1.65-1.71-3.67-2.56-6.04-2.56Z"/><path class="g" d="M78.89,82.16h4.92v21.16h7.17v4.69h-12.09v-25.86Z"/><path class="g" d="M94.75,82.16h14.12v4.82h-9.23v4.68h9.23v4.73h-9.23v6.8h9.23v4.83h-14.12v-25.86Z"/><path class="g" d="M129.32,82.16h5.83c3.76,0,6.55,.47,8.38,1.4,1.83,.93,3.33,2.45,4.51,4.54,1.18,2.1,1.77,4.55,1.77,7.35,0,1.99-.33,3.82-.99,5.49-.66,1.67-1.58,3.06-2.74,4.16-1.16,1.1-2.43,1.86-3.79,2.29-1.36,.42-3.71,.63-7.06,.63h-5.92v-25.86Zm4.89,4.75v16.31h2.29c2.25,0,3.88-.26,4.9-.77,1.01-.52,1.84-1.38,2.49-2.6,.64-1.22,.97-2.72,.97-4.5,0-2.75-.77-4.87-2.3-6.39-1.38-1.36-3.6-2.04-6.66-2.04h-1.67Z"/><path class="g" d="M154.53,82.16h14.12v4.82h-9.23v4.68h9.23v4.73h-9.23v6.8h9.23v4.83h-14.12v-25.86Z"/><path class="e" d="M1.85,120.16H7.07c2.82,0,4.86,.26,6.11,.78,1.25,.52,2.23,1.37,2.95,2.53,.72,1.17,1.08,2.56,1.08,4.19,0,1.8-.47,3.3-1.41,4.5-.94,1.2-2.22,2.03-3.84,2.5-.95,.27-2.68,.4-5.19,.4v10.95H1.85v-25.86Zm4.92,10.11h1.56c1.23,0,2.09-.09,2.57-.26,.48-.18,.86-.47,1.13-.87,.28-.41,.41-.9,.41-1.47,0-1-.39-1.73-1.16-2.19-.56-.34-1.61-.51-3.13-.51h-1.39v5.31Z"/><path class="e" d="M22.52,120.16h4.99v9.76h8.63v-9.76h4.97v25.86h-4.97v-11.34h-8.63v11.34h-4.99v-25.86Z"/><path class="e" d="M45.7,120.16h5.28l4.82,9.3,4.8-9.3h5.22l-7.57,14.66v11.2h-4.96v-11.2l-7.6-14.66Z"/><path class="e" d="M83.95,123.67l-3.65,3.22c-1.28-1.78-2.58-2.67-3.91-2.67-.65,0-1.17,.17-1.58,.52-.41,.35-.62,.74-.62,1.17s.15,.84,.44,1.23c.4,.52,1.6,1.62,3.61,3.32,1.88,1.57,3.02,2.56,3.42,2.97,1,1.01,1.71,1.97,2.12,2.89,.42,.92,.62,1.92,.62,3.01,0,2.12-.73,3.87-2.2,5.26-1.47,1.38-3.38,2.07-5.74,2.07-1.84,0-3.45-.45-4.81-1.35-1.37-.9-2.54-2.32-3.51-4.25l4.14-2.5c1.24,2.29,2.68,3.43,4.3,3.43,.85,0,1.56-.25,2.13-.74,.58-.49,.86-1.06,.86-1.7,0-.59-.22-1.17-.65-1.76-.43-.59-1.39-1.48-2.87-2.69-2.82-2.3-4.64-4.07-5.46-5.32-.82-1.25-1.23-2.49-1.23-3.74,0-1.79,.68-3.33,2.05-4.61s3.05-1.92,5.06-1.92c1.29,0,2.52,.3,3.69,.9,1.17,.6,2.43,1.69,3.79,3.27Z"/><path class="e" d="M89.26,120.16h4.89v25.86h-4.89v-25.86Z"/><path class="e" d="M122.38,142.24l4.5,5.82h-5.83l-2.29-2.94c-1.89,1.04-4,1.55-6.32,1.55-3.88,0-7.11-1.34-9.68-4.02s-3.85-5.87-3.85-9.57c0-2.47,.6-4.74,1.79-6.81,1.2-2.07,2.84-3.71,4.93-4.93,2.09-1.22,4.34-1.83,6.74-1.83,3.67,0,6.82,1.32,9.45,3.97,2.63,2.65,3.95,5.88,3.95,9.69,0,3.5-1.14,6.53-3.41,9.07Zm-3.07-3.97c1.04-1.55,1.56-3.26,1.56-5.13,0-2.45-.83-4.53-2.48-6.24-1.65-1.71-3.65-2.57-6-2.57s-4.44,.83-6.07,2.5c-1.63,1.66-2.45,3.78-2.45,6.35,0,2.86,1.03,5.12,3.08,6.79,1.61,1.3,3.43,1.95,5.48,1.95,1.17,0,2.28-.23,3.31-.69l-4.63-5.96h5.87l2.32,3Z"/><path class="e" d="M130.77,120.16h4.94v16.72c0,1.44,.13,2.46,.38,3.06,.25,.6,.67,1.07,1.25,1.43,.58,.36,1.28,.54,2.1,.54,.87,0,1.61-.2,2.24-.6,.63-.4,1.06-.91,1.3-1.52,.24-.61,.36-1.79,.36-3.52v-16.11h4.94v15.42c0,2.6-.15,4.41-.44,5.41-.29,1.01-.85,1.98-1.68,2.92s-1.78,1.63-2.86,2.08c-1.08,.45-2.33,.68-3.76,.68-1.87,0-3.51-.43-4.9-1.29-1.39-.86-2.38-1.94-2.98-3.23-.6-1.29-.9-3.48-.9-6.57v-15.42Z"/><path class="e" d="M154.52,120.16h14.12v4.82h-9.23v4.68h9.23v4.73h-9.23v6.8h9.23v4.83h-14.12v-25.86Z"/><path class="e" d="M.97,158.06H5.02c2.61,0,4.55,.32,5.82,.97,1.27,.65,2.31,1.7,3.13,3.16,.82,1.46,1.23,3.16,1.23,5.1,0,1.38-.23,2.66-.69,3.82-.46,1.16-1.09,2.12-1.9,2.89-.81,.76-1.69,1.29-2.63,1.59-.94,.29-2.58,.44-4.9,.44H.97v-17.96Zm3.39,3.3v11.33h1.59c1.56,0,2.7-.18,3.4-.54,.7-.36,1.28-.96,1.73-1.81,.45-.85,.67-1.89,.67-3.13,0-1.91-.53-3.38-1.6-4.44-.96-.95-2.5-1.42-4.63-1.42h-1.16Z"/><path class="e" d="M18.48,158.06h9.8v3.35h-6.41v3.25h6.41v3.28h-6.41v4.72h6.41v3.36h-9.8v-17.96Z"/><path class="e" d="M40.89,160.5l-2.53,2.23c-.89-1.24-1.79-1.86-2.72-1.86-.45,0-.81,.12-1.1,.36-.29,.24-.43,.51-.43,.81s.1,.59,.31,.85c.28,.36,1.11,1.13,2.51,2.31,1.3,1.09,2.09,1.78,2.37,2.06,.69,.7,1.18,1.37,1.47,2.01,.29,.64,.43,1.34,.43,2.09,0,1.47-.51,2.69-1.53,3.65-1.02,.96-2.35,1.44-3.98,1.44-1.28,0-2.39-.31-3.34-.94-.95-.63-1.76-1.61-2.44-2.95l2.87-1.73c.86,1.59,1.86,2.38,2.98,2.38,.59,0,1.08-.17,1.48-.51s.6-.74,.6-1.18c0-.41-.15-.81-.45-1.22s-.97-1.03-1.99-1.87c-1.96-1.6-3.22-2.83-3.79-3.69-.57-.87-.86-1.73-.86-2.59,0-1.25,.47-2.31,1.42-3.2,.95-.89,2.12-1.34,3.51-1.34,.9,0,1.75,.21,2.56,.62,.81,.41,1.69,1.17,2.63,2.27Z"/><path class="e" d="M55.81,158.06h3.47v6.78h5.99v-6.78h3.45v17.96h-3.45v-7.87h-5.99v7.87h-3.47v-17.96Z"/><path class="e" d="M81.3,157.61c2.54,0,4.73,.92,6.55,2.76,1.83,1.84,2.74,4.08,2.74,6.73s-.9,4.84-2.71,6.65c-1.8,1.81-3.99,2.72-6.57,2.72s-4.93-.93-6.72-2.79c-1.78-1.86-2.68-4.08-2.68-6.64,0-1.72,.41-3.3,1.25-4.74,.83-1.44,1.97-2.58,3.43-3.42,1.45-.84,3.02-1.26,4.7-1.26Zm-.04,3.34c-1.66,0-3.06,.58-4.19,1.73-1.13,1.16-1.7,2.62-1.7,4.41,0,1.99,.71,3.56,2.14,4.71,1.11,.9,2.38,1.35,3.81,1.35,1.62,0,3-.59,4.14-1.76,1.14-1.17,1.71-2.62,1.71-4.33s-.57-3.16-1.72-4.34c-1.15-1.18-2.55-1.78-4.19-1.78Z"/><path class="e" d="M93.7,158.06h3.43v11.61c0,1,.09,1.71,.26,2.12,.18,.41,.46,.75,.87,.99,.4,.25,.89,.37,1.46,.37,.6,0,1.12-.14,1.56-.42,.44-.28,.74-.63,.9-1.05,.17-.43,.25-1.24,.25-2.45v-11.19h3.43v10.71c0,1.81-.1,3.06-.3,3.76-.2,.7-.59,1.38-1.17,2.03-.57,.65-1.23,1.13-1.98,1.45-.75,.31-1.62,.47-2.61,.47-1.3,0-2.43-.3-3.4-.9-.96-.6-1.65-1.35-2.07-2.25-.42-.9-.62-2.42-.62-4.56v-10.71Z"/><path class="e" d="M126.33,161.22l-2.39,2.28c-1.63-1.72-3.46-2.58-5.49-2.58-1.72,0-3.16,.59-4.34,1.76-1.17,1.17-1.76,2.62-1.76,4.34,0,1.2,.26,2.26,.78,3.19s1.26,1.66,2.21,2.19c.95,.53,2.01,.79,3.17,.79,.99,0,1.9-.19,2.72-.56,.82-.37,1.72-1.04,2.71-2.02l2.32,2.42c-1.33,1.29-2.58,2.19-3.76,2.69-1.18,.5-2.53,.75-4.04,.75-2.79,0-5.08-.88-6.85-2.65-1.78-1.77-2.67-4.04-2.67-6.81,0-1.79,.4-3.38,1.21-4.77,.81-1.39,1.97-2.51,3.48-3.36,1.51-.85,3.13-1.27,4.88-1.27,1.48,0,2.91,.31,4.28,.94,1.37,.63,2.55,1.52,3.55,2.67Z"/><path class="e" d="M129.31,158.06h3.47v6.78h5.99v-6.78h3.45v17.96h-3.45v-7.87h-5.99v7.87h-3.47v-17.96Z"/><path class="e" d="M146.34,158.06h9.8v3.35h-6.41v3.25h6.41v3.28h-6.41v4.72h6.41v3.36h-9.8v-17.96Z"/><path class="e" d="M168.75,160.5l-2.53,2.23c-.89-1.24-1.79-1.86-2.71-1.86-.45,0-.82,.12-1.1,.36-.29,.24-.43,.51-.43,.81s.1,.59,.31,.85c.28,.36,1.11,1.13,2.51,2.31,1.3,1.09,2.1,1.78,2.37,2.06,.69,.7,1.18,1.37,1.47,2.01,.29,.64,.43,1.34,.43,2.09,0,1.47-.51,2.69-1.53,3.65-1.02,.96-2.35,1.44-3.98,1.44-1.28,0-2.39-.31-3.34-.94-.95-.63-1.76-1.61-2.44-2.95l2.87-1.73c.86,1.59,1.86,2.38,2.98,2.38,.59,0,1.08-.17,1.48-.51s.6-.74,.6-1.18c0-.41-.15-.81-.45-1.22s-.97-1.03-1.99-1.87c-1.96-1.6-3.22-2.83-3.79-3.69-.57-.87-.86-1.73-.86-2.59,0-1.25,.47-2.31,1.42-3.2,.95-.89,2.12-1.34,3.51-1.34,.9,0,1.75,.21,2.56,.62,.81,.41,1.69,1.17,2.63,2.27Z"/></g></g></g></g></svg>